<svg width="508" height="365" viewBox="0 0 508 365" fill="none" xmlns="http://www.w3.org/2000/svg">
<g filter="url(#filter0_d_1_705)">
<rect x="30" y="26" width="448" height="304.926" rx="7" fill="#49888C"/>
<path d="M163.424 81.44V82.912H159.808V92H158.096V82.912H154.48V81.44H163.424ZM164.984 92V80.4H166.696V85.28C166.963 84.7787 167.32 84.416 167.768 84.192C168.227 83.9573 168.734 83.84 169.288 83.84C169.854 83.84 170.36 83.952 170.808 84.176C171.267 84.3893 171.63 84.7147 171.896 85.152C172.163 85.5893 172.296 86.144 172.296 86.816V92H170.584V87.36C170.584 86.5707 170.419 86.0213 170.088 85.712C169.768 85.4027 169.363 85.248 168.872 85.248C168.531 85.248 168.19 85.3333 167.848 85.504C167.518 85.664 167.24 85.9307 167.016 86.304C166.803 86.6667 166.696 87.1573 166.696 87.776V92H164.984ZM178.411 92.16C177.611 92.16 176.907 91.9947 176.299 91.664C175.691 91.3333 175.216 90.8587 174.875 90.24C174.544 89.6107 174.379 88.864 174.379 88C174.379 87.136 174.544 86.3947 174.875 85.776C175.216 85.1467 175.685 84.6667 176.283 84.336C176.88 84.0053 177.557 83.84 178.315 83.84C179.093 83.84 179.755 84 180.299 84.32C180.843 84.64 181.259 85.0773 181.547 85.632C181.835 86.1867 181.979 86.816 181.979 87.52C181.979 87.712 181.973 87.8933 181.963 88.064C181.952 88.2347 181.936 88.384 181.915 88.512H175.483V87.2H181.163L180.315 87.456C180.315 86.7307 180.133 86.176 179.771 85.792C179.408 85.3973 178.912 85.2 178.283 85.2C177.824 85.2 177.424 85.3067 177.083 85.52C176.741 85.7333 176.48 86.0533 176.299 86.48C176.117 86.896 176.027 87.408 176.027 88.016C176.027 88.6133 176.123 89.12 176.315 89.536C176.507 89.952 176.779 90.2667 177.131 90.48C177.483 90.6933 177.899 90.8 178.379 90.8C178.912 90.8 179.344 90.6987 179.675 90.496C180.005 90.2933 180.267 90.0107 180.459 89.648L181.819 90.288C181.627 90.672 181.365 91.008 181.035 91.296C180.715 91.5733 180.331 91.7867 179.883 91.936C179.435 92.0853 178.944 92.16 178.411 92.16ZM198.24 81.44V92H196.208L192.128 85.344L191.104 83.472H191.088L191.152 85.184V92H189.584V81.44H191.6L195.664 88.08L196.704 89.984H196.72L196.656 88.256V81.44H198.24ZM204.536 92.16C203.736 92.16 203.032 91.9947 202.424 91.664C201.816 91.3333 201.341 90.8587 201 90.24C200.669 89.6107 200.504 88.864 200.504 88C200.504 87.136 200.669 86.3947 201 85.776C201.341 85.1467 201.81 84.6667 202.408 84.336C203.005 84.0053 203.682 83.84 204.44 83.84C205.218 83.84 205.88 84 206.424 84.32C206.968 84.64 207.384 85.0773 207.672 85.632C207.96 86.1867 208.104 86.816 208.104 87.52C208.104 87.712 208.098 87.8933 208.088 88.064C208.077 88.2347 208.061 88.384 208.04 88.512H201.608V87.2H207.288L206.44 87.456C206.44 86.7307 206.258 86.176 205.896 85.792C205.533 85.3973 205.037 85.2 204.408 85.2C203.949 85.2 203.549 85.3067 203.208 85.52C202.866 85.7333 202.605 86.0533 202.424 86.48C202.242 86.896 202.152 87.408 202.152 88.016C202.152 88.6133 202.248 89.12 202.44 89.536C202.632 89.952 202.904 90.2667 203.256 90.48C203.608 90.6933 204.024 90.8 204.504 90.8C205.037 90.8 205.469 90.6987 205.8 90.496C206.13 90.2933 206.392 90.0107 206.584 89.648L207.944 90.288C207.752 90.672 207.49 91.008 207.16 91.296C206.84 91.5733 206.456 91.7867 206.008 91.936C205.56 92.0853 205.069 92.16 204.536 92.16ZM213.786 92.16C212.986 92.16 212.282 91.9947 211.674 91.664C211.066 91.3333 210.591 90.8587 210.25 90.24C209.919 89.6107 209.754 88.864 209.754 88C209.754 87.136 209.919 86.3947 210.25 85.776C210.591 85.1467 211.06 84.6667 211.658 84.336C212.255 84.0053 212.932 83.84 213.69 83.84C214.468 83.84 215.13 84 215.674 84.32C216.218 84.64 216.634 85.0773 216.922 85.632C217.21 86.1867 217.354 86.816 217.354 87.52C217.354 87.712 217.348 87.8933 217.338 88.064C217.327 88.2347 217.311 88.384 217.29 88.512H210.858V87.2H216.538L215.69 87.456C215.69 86.7307 215.508 86.176 215.146 85.792C214.783 85.3973 214.287 85.2 213.658 85.2C213.199 85.2 212.799 85.3067 212.458 85.52C212.116 85.7333 211.855 86.0533 211.674 86.48C211.492 86.896 211.402 87.408 211.402 88.016C211.402 88.6133 211.498 89.12 211.69 89.536C211.882 89.952 212.154 90.2667 212.506 90.48C212.858 90.6933 213.274 90.8 213.754 90.8C214.287 90.8 214.719 90.6987 215.05 90.496C215.38 90.2933 215.642 90.0107 215.834 89.648L217.194 90.288C217.002 90.672 216.74 91.008 216.41 91.296C216.09 91.5733 215.706 91.7867 215.258 91.936C214.81 92.0853 214.319 92.16 213.786 92.16ZM222.588 92.16C221.926 92.16 221.324 91.9947 220.78 91.664C220.246 91.3333 219.825 90.8587 219.516 90.24C219.206 89.6213 219.052 88.88 219.052 88.016C219.052 87.12 219.217 86.3627 219.548 85.744C219.878 85.1253 220.321 84.656 220.876 84.336C221.43 84.0053 222.038 83.84 222.7 83.84C223.382 83.84 223.958 84.0267 224.428 84.4C224.897 84.7733 225.212 85.2587 225.372 85.856L225.18 86.032V80.4H226.892V92H225.372L225.244 89.824L225.468 89.84C225.393 90.32 225.217 90.736 224.94 91.088C224.662 91.4293 224.316 91.696 223.9 91.888C223.494 92.0693 223.057 92.16 222.588 92.16ZM222.956 90.784C223.414 90.784 223.809 90.6667 224.14 90.432C224.47 90.1973 224.726 89.8667 224.908 89.44C225.089 89.0133 225.18 88.5013 225.18 87.904C225.18 87.3493 225.089 86.8747 224.908 86.48C224.726 86.0747 224.47 85.7653 224.14 85.552C223.82 85.3387 223.446 85.232 223.02 85.232C222.305 85.232 221.75 85.4773 221.356 85.968C220.961 86.4587 220.764 87.136 220.764 88C220.764 88.864 220.956 89.5467 221.34 90.048C221.724 90.5387 222.262 90.784 222.956 90.784ZM232.587 92.16C231.787 92.16 231.056 92.0053 230.395 91.696C229.733 91.3867 229.211 90.9493 228.827 90.384L230.011 89.36C230.245 89.7973 230.581 90.1493 231.019 90.416C231.467 90.672 232 90.8 232.619 90.8C233.109 90.8 233.499 90.7147 233.787 90.544C234.075 90.3733 234.219 90.1333 234.219 89.824C234.219 89.6213 234.149 89.4453 234.011 89.296C233.883 89.136 233.632 89.0133 233.259 88.928L231.579 88.576C230.725 88.4053 230.117 88.1333 229.755 87.76C229.392 87.376 229.211 86.8907 229.211 86.304C229.211 85.8667 229.339 85.4613 229.595 85.088C229.851 84.7147 230.224 84.416 230.715 84.192C231.216 83.9573 231.813 83.84 232.507 83.84C233.307 83.84 233.989 83.984 234.555 84.272C235.12 84.5493 235.552 84.9493 235.851 85.472L234.667 86.464C234.464 86.0373 234.165 85.7227 233.771 85.52C233.376 85.3067 232.965 85.2 232.539 85.2C232.197 85.2 231.904 85.2427 231.659 85.328C231.413 85.4133 231.227 85.5307 231.099 85.68C230.971 85.8293 230.907 86.0053 230.907 86.208C230.907 86.4213 230.987 86.608 231.147 86.768C231.307 86.928 231.595 87.0507 232.011 87.136L233.835 87.52C234.603 87.6693 235.141 87.9253 235.451 88.288C235.771 88.64 235.931 89.072 235.931 89.584C235.931 90.096 235.797 90.5493 235.531 90.944C235.264 91.328 234.88 91.6267 234.379 91.84C233.877 92.0533 233.28 92.16 232.587 92.16ZM246.691 83.84C247.469 83.84 248.157 84.0053 248.755 84.336C249.352 84.6667 249.816 85.1467 250.147 85.776C250.488 86.3947 250.659 87.136 250.659 88C250.659 88.864 250.488 89.6107 250.147 90.24C249.816 90.8587 249.352 91.3333 248.755 91.664C248.157 91.9947 247.469 92.16 246.691 92.16C245.912 92.16 245.224 91.9947 244.627 91.664C244.029 91.3333 243.56 90.8587 243.219 90.24C242.877 89.6107 242.707 88.864 242.707 88C242.707 87.136 242.877 86.3947 243.219 85.776C243.56 85.1467 244.029 84.6667 244.627 84.336C245.224 84.0053 245.912 83.84 246.691 83.84ZM246.691 85.184C246.211 85.184 245.8 85.296 245.459 85.52C245.128 85.7333 244.872 86.048 244.691 86.464C244.509 86.88 244.419 87.392 244.419 88C244.419 88.5973 244.509 89.1093 244.691 89.536C244.872 89.952 245.128 90.272 245.459 90.496C245.8 90.7093 246.211 90.816 246.691 90.816C247.171 90.816 247.576 90.7093 247.907 90.496C248.237 90.272 248.493 89.952 248.675 89.536C248.856 89.1093 248.947 88.5973 248.947 88C248.947 87.392 248.856 86.88 248.675 86.464C248.493 86.048 248.237 85.7333 247.907 85.52C247.576 85.296 247.171 85.184 246.691 85.184ZM256.095 80.288C256.426 80.288 256.724 80.3253 256.991 80.4C257.268 80.464 257.476 80.5547 257.615 80.672L257.295 81.904C257.178 81.8293 257.044 81.776 256.895 81.744C256.746 81.7013 256.575 81.68 256.383 81.68C255.946 81.68 255.599 81.7813 255.343 81.984C255.098 82.1867 254.975 82.5173 254.975 82.976V84.144L255.023 84.576V92H253.311V82.848C253.311 82.4427 253.37 82.08 253.487 81.76C253.615 81.44 253.802 81.1733 254.047 80.96C254.292 80.736 254.586 80.5707 254.927 80.464C255.279 80.3467 255.668 80.288 256.095 80.288ZM257.567 84V85.344H251.807V84H257.567ZM265.867 81.648V89.6C265.867 89.9947 265.968 90.2827 266.171 90.464C266.384 90.6453 266.667 90.736 267.019 90.736C267.307 90.736 267.558 90.6933 267.771 90.608C267.984 90.512 268.182 90.384 268.363 90.224L268.747 91.472C268.502 91.6853 268.198 91.856 267.835 91.984C267.483 92.1013 267.088 92.16 266.651 92.16C266.192 92.16 265.771 92.0853 265.387 91.936C265.003 91.7867 264.704 91.5467 264.491 91.216C264.278 90.8747 264.166 90.432 264.155 89.888V82.128L265.867 81.648ZM268.619 84V85.344H262.619V84H268.619ZM270.375 92V80.4H272.087V85.28C272.354 84.7787 272.711 84.416 273.159 84.192C273.618 83.9573 274.124 83.84 274.679 83.84C275.244 83.84 275.751 83.952 276.199 84.176C276.658 84.3893 277.02 84.7147 277.287 85.152C277.554 85.5893 277.687 86.144 277.687 86.816V92H275.975V87.36C275.975 86.5707 275.81 86.0213 275.479 85.712C275.159 85.4027 274.754 85.248 274.263 85.248C273.922 85.248 273.58 85.3333 273.239 85.504C272.908 85.664 272.631 85.9307 272.407 86.304C272.194 86.6667 272.087 87.1573 272.087 87.776V92H270.375ZM283.801 92.16C283.001 92.16 282.297 91.9947 281.689 91.664C281.081 91.3333 280.606 90.8587 280.265 90.24C279.934 89.6107 279.769 88.864 279.769 88C279.769 87.136 279.934 86.3947 280.265 85.776C280.606 85.1467 281.076 84.6667 281.673 84.336C282.27 84.0053 282.948 83.84 283.705 83.84C284.484 83.84 285.145 84 285.689 84.32C286.233 84.64 286.649 85.0773 286.937 85.632C287.225 86.1867 287.369 86.816 287.369 87.52C287.369 87.712 287.364 87.8933 287.353 88.064C287.342 88.2347 287.326 88.384 287.305 88.512H280.873V87.2H286.553L285.705 87.456C285.705 86.7307 285.524 86.176 285.161 85.792C284.798 85.3973 284.302 85.2 283.673 85.2C283.214 85.2 282.814 85.3067 282.473 85.52C282.132 85.7333 281.87 86.0533 281.689 86.48C281.508 86.896 281.417 87.408 281.417 88.016C281.417 88.6133 281.513 89.12 281.705 89.536C281.897 89.952 282.169 90.2667 282.521 90.48C282.873 90.6933 283.289 90.8 283.769 90.8C284.302 90.8 284.734 90.6987 285.065 90.496C285.396 90.2933 285.657 90.0107 285.849 89.648L287.209 90.288C287.017 90.672 286.756 91.008 286.425 91.296C286.105 91.5733 285.721 91.7867 285.273 91.936C284.825 92.0853 284.334 92.16 283.801 92.16ZM298.574 81.28C299.524 81.28 300.345 81.4613 301.038 81.824C301.732 82.176 302.318 82.6987 302.798 83.392L301.646 84.496C301.241 83.8773 300.782 83.4347 300.27 83.168C299.769 82.8907 299.172 82.752 298.478 82.752C297.966 82.752 297.545 82.8213 297.214 82.96C296.884 83.0987 296.638 83.2853 296.478 83.52C296.329 83.744 296.254 84 296.254 84.288C296.254 84.6187 296.366 84.9067 296.59 85.152C296.825 85.3973 297.257 85.5893 297.886 85.728L300.03 86.208C301.054 86.432 301.78 86.7733 302.206 87.232C302.633 87.6907 302.846 88.272 302.846 88.976C302.846 89.6267 302.67 90.192 302.318 90.672C301.966 91.152 301.476 91.52 300.846 91.776C300.228 92.032 299.497 92.16 298.654 92.16C297.908 92.16 297.236 92.064 296.638 91.872C296.041 91.68 295.518 91.4187 295.07 91.088C294.622 90.7573 294.254 90.3787 293.966 89.952L295.15 88.768C295.374 89.1413 295.657 89.4773 295.998 89.776C296.34 90.064 296.734 90.288 297.182 90.448C297.641 90.608 298.148 90.688 298.702 90.688C299.193 90.688 299.614 90.6293 299.966 90.512C300.329 90.3947 300.601 90.224 300.782 90C300.974 89.7653 301.07 89.488 301.07 89.168C301.07 88.8587 300.964 88.5867 300.75 88.352C300.548 88.1173 300.164 87.936 299.598 87.808L297.278 87.28C296.638 87.1413 296.11 86.944 295.694 86.688C295.278 86.432 294.969 86.1227 294.766 85.76C294.564 85.3867 294.462 84.9707 294.462 84.512C294.462 83.9147 294.622 83.376 294.942 82.896C295.273 82.4053 295.748 82.016 296.366 81.728C296.985 81.4293 297.721 81.28 298.574 81.28ZM307.336 81.648V89.6C307.336 89.9947 307.437 90.2827 307.64 90.464C307.853 90.6453 308.136 90.736 308.488 90.736C308.776 90.736 309.027 90.6933 309.24 90.608C309.453 90.512 309.651 90.384 309.832 90.224L310.216 91.472C309.971 91.6853 309.667 91.856 309.304 91.984C308.952 92.1013 308.557 92.16 308.12 92.16C307.661 92.16 307.24 92.0853 306.856 91.936C306.472 91.7867 306.173 91.5467 305.96 91.216C305.747 90.8747 305.635 90.432 305.624 89.888V82.128L307.336 81.648ZM310.088 84V85.344H304.088V84H310.088ZM314.629 92.16C314.106 92.16 313.621 92.064 313.173 91.872C312.736 91.68 312.384 91.3707 312.117 90.944C311.85 90.5173 311.717 89.9627 311.717 89.28V84H313.429V88.848C313.429 89.5733 313.584 90.0747 313.893 90.352C314.202 90.6187 314.634 90.752 315.189 90.752C315.456 90.752 315.712 90.7093 315.957 90.624C316.213 90.528 316.442 90.384 316.645 90.192C316.848 89.9893 317.002 89.7333 317.109 89.424C317.226 89.1147 317.285 88.752 317.285 88.336V84H318.997V92H317.493L317.413 90.704C317.136 91.2053 316.762 91.5733 316.293 91.808C315.824 92.0427 315.269 92.16 314.629 92.16ZM324.744 92.16C324.082 92.16 323.48 91.9947 322.936 91.664C322.402 91.3333 321.981 90.8587 321.672 90.24C321.362 89.6213 321.208 88.88 321.208 88.016C321.208 87.12 321.373 86.3627 321.704 85.744C322.034 85.1253 322.477 84.656 323.032 84.336C323.586 84.0053 324.194 83.84 324.856 83.84C325.538 83.84 326.114 84.0267 326.584 84.4C327.053 84.7733 327.368 85.2587 327.528 85.856L327.336 86.032V80.4H329.048V92H327.528L327.4 89.824L327.624 89.84C327.549 90.32 327.373 90.736 327.096 91.088C326.818 91.4293 326.472 91.696 326.056 91.888C325.65 92.0693 325.213 92.16 324.744 92.16ZM325.112 90.784C325.57 90.784 325.965 90.6667 326.296 90.432C326.626 90.1973 326.882 89.8667 327.064 89.44C327.245 89.0133 327.336 88.5013 327.336 87.904C327.336 87.3493 327.245 86.8747 327.064 86.48C326.882 86.0747 326.626 85.7653 326.296 85.552C325.976 85.3387 325.602 85.232 325.176 85.232C324.461 85.232 323.906 85.4773 323.512 85.968C323.117 86.4587 322.92 87.136 322.92 88C322.92 88.864 323.112 89.5467 323.496 90.048C323.88 90.5387 324.418 90.784 325.112 90.784ZM335.223 92.16C334.423 92.16 333.719 91.9947 333.111 91.664C332.503 91.3333 332.028 90.8587 331.687 90.24C331.356 89.6107 331.191 88.864 331.191 88C331.191 87.136 331.356 86.3947 331.687 85.776C332.028 85.1467 332.498 84.6667 333.095 84.336C333.692 84.0053 334.37 83.84 335.127 83.84C335.906 83.84 336.567 84 337.111 84.32C337.655 84.64 338.071 85.0773 338.359 85.632C338.647 86.1867 338.791 86.816 338.791 87.52C338.791 87.712 338.786 87.8933 338.775 88.064C338.764 88.2347 338.748 88.384 338.727 88.512H332.295V87.2H337.975L337.127 87.456C337.127 86.7307 336.946 86.176 336.583 85.792C336.22 85.3973 335.724 85.2 335.095 85.2C334.636 85.2 334.236 85.3067 333.895 85.52C333.554 85.7333 333.292 86.0533 333.111 86.48C332.93 86.896 332.839 87.408 332.839 88.016C332.839 88.6133 332.935 89.12 333.127 89.536C333.319 89.952 333.591 90.2667 333.943 90.48C334.295 90.6933 334.711 90.8 335.191 90.8C335.724 90.8 336.156 90.6987 336.487 90.496C336.818 90.2933 337.079 90.0107 337.271 89.648L338.631 90.288C338.439 90.672 338.178 91.008 337.847 91.296C337.527 91.5733 337.143 91.7867 336.695 91.936C336.247 92.0853 335.756 92.16 335.223 92.16ZM340.953 92V84H342.473L342.585 86.08L342.361 85.856C342.51 85.3973 342.724 85.0187 343.001 84.72C343.289 84.4107 343.625 84.1867 344.009 84.048C344.404 83.9093 344.82 83.84 345.257 83.84C345.822 83.84 346.329 83.952 346.777 84.176C347.236 84.3893 347.598 84.7147 347.865 85.152C348.132 85.5893 348.265 86.144 348.265 86.816V92H346.553V87.344C346.553 86.5547 346.388 86.0107 346.057 85.712C345.737 85.4027 345.332 85.248 344.841 85.248C344.489 85.248 344.148 85.3333 343.817 85.504C343.486 85.664 343.209 85.9253 342.985 86.288C342.772 86.6507 342.665 87.136 342.665 87.744V92H340.953ZM353.102 81.648V89.6C353.102 89.9947 353.203 90.2827 353.406 90.464C353.619 90.6453 353.902 90.736 354.254 90.736C354.542 90.736 354.792 90.6933 355.006 90.608C355.219 90.512 355.416 90.384 355.598 90.224L355.982 91.472C355.736 91.6853 355.432 91.856 355.07 91.984C354.718 92.1013 354.323 92.16 353.886 92.16C353.427 92.16 353.006 92.0853 352.622 91.936C352.238 91.7867 351.939 91.5467 351.726 91.216C351.512 90.8747 351.4 90.432 351.39 89.888V82.128L353.102 81.648ZM355.854 84V85.344H349.854V84H355.854ZM360.587 92.16C359.787 92.16 359.056 92.0053 358.395 91.696C357.733 91.3867 357.211 90.9493 356.827 90.384L358.011 89.36C358.245 89.7973 358.581 90.1493 359.019 90.416C359.467 90.672 360 90.8 360.619 90.8C361.109 90.8 361.499 90.7147 361.787 90.544C362.075 90.3733 362.219 90.1333 362.219 89.824C362.219 89.6213 362.149 89.4453 362.011 89.296C361.883 89.136 361.632 89.0133 361.259 88.928L359.579 88.576C358.725 88.4053 358.117 88.1333 357.755 87.76C357.392 87.376 357.211 86.8907 357.211 86.304C357.211 85.8667 357.339 85.4613 357.595 85.088C357.851 84.7147 358.224 84.416 358.715 84.192C359.216 83.9573 359.813 83.84 360.507 83.84C361.307 83.84 361.989 83.984 362.555 84.272C363.12 84.5493 363.552 84.9493 363.851 85.472L362.667 86.464C362.464 86.0373 362.165 85.7227 361.771 85.52C361.376 85.3067 360.965 85.2 360.539 85.2C360.197 85.2 359.904 85.2427 359.659 85.328C359.413 85.4133 359.227 85.5307 359.099 85.68C358.971 85.8293 358.907 86.0053 358.907 86.208C358.907 86.4213 358.987 86.608 359.147 86.768C359.307 86.928 359.595 87.0507 360.011 87.136L361.835 87.52C362.603 87.6693 363.141 87.9253 363.451 88.288C363.771 88.64 363.931 89.072 363.931 89.584C363.931 90.096 363.797 90.5493 363.531 90.944C363.264 91.328 362.88 91.6267 362.379 91.84C361.877 92.0533 361.28 92.16 360.587 92.16Z" fill="white"/>
<path d="M200.324 278.42C200.005 278.42 199.722 278.483 199.475 278.608C199.232 278.73 199.026 278.907 198.857 279.14C198.693 279.373 198.567 279.654 198.481 279.983C198.396 280.313 198.353 280.683 198.353 281.095C198.353 281.65 198.421 282.125 198.557 282.519C198.696 282.909 198.911 283.208 199.201 283.416C199.491 283.62 199.865 283.722 200.324 283.722C200.642 283.722 200.961 283.686 201.28 283.614C201.602 283.543 201.951 283.441 202.327 283.308V284.705C201.98 284.848 201.638 284.95 201.301 285.011C200.965 285.075 200.587 285.107 200.168 285.107C199.359 285.107 198.693 284.941 198.17 284.608C197.651 284.271 197.266 283.802 197.015 283.201C196.764 282.596 196.639 281.89 196.639 281.084C196.639 280.49 196.72 279.946 196.881 279.452C197.042 278.958 197.278 278.53 197.59 278.168C197.901 277.806 198.286 277.527 198.745 277.33C199.203 277.133 199.729 277.035 200.324 277.035C200.714 277.035 201.104 277.085 201.495 277.185C201.889 277.282 202.264 277.416 202.623 277.588L202.085 278.941C201.792 278.802 201.496 278.68 201.199 278.576C200.902 278.472 200.61 278.42 200.324 278.42ZM205.512 276.643V278.345C205.512 278.642 205.501 278.925 205.48 279.194C205.462 279.462 205.448 279.652 205.437 279.763H205.523C205.652 279.556 205.804 279.387 205.979 279.258C206.159 279.129 206.355 279.035 206.57 278.974C206.785 278.913 207.016 278.882 207.263 278.882C207.696 278.882 208.074 278.959 208.396 279.113C208.719 279.264 208.969 279.502 209.148 279.828C209.327 280.15 209.417 280.569 209.417 281.084V285H207.779V281.493C207.779 281.063 207.7 280.739 207.542 280.521C207.385 280.302 207.141 280.193 206.812 280.193C206.483 280.193 206.223 280.27 206.033 280.424C205.843 280.574 205.709 280.798 205.63 281.095C205.552 281.389 205.512 281.749 205.512 282.175V285H203.874V276.643H205.512ZM213.58 278.882C214.135 278.882 214.613 278.99 215.014 279.205C215.415 279.416 215.724 279.724 215.943 280.128C216.161 280.533 216.271 281.027 216.271 281.611V282.406H212.398C212.416 282.868 212.554 283.231 212.812 283.496C213.073 283.757 213.435 283.888 213.896 283.888C214.28 283.888 214.631 283.849 214.949 283.77C215.268 283.691 215.596 283.573 215.932 283.416V284.683C215.635 284.83 215.323 284.937 214.998 285.005C214.675 285.073 214.283 285.107 213.821 285.107C213.22 285.107 212.686 284.996 212.221 284.774C211.759 284.552 211.395 284.214 211.13 283.759C210.869 283.305 210.738 282.732 210.738 282.041C210.738 281.339 210.856 280.755 211.093 280.29C211.333 279.82 211.666 279.47 212.092 279.237C212.518 279 213.014 278.882 213.58 278.882ZM213.59 280.048C213.272 280.048 213.007 280.15 212.795 280.354C212.588 280.558 212.468 280.879 212.436 281.315H214.734C214.731 281.072 214.686 280.855 214.6 280.666C214.518 280.476 214.392 280.325 214.224 280.214C214.059 280.103 213.848 280.048 213.59 280.048ZM220.062 278.872C220.868 278.872 221.486 279.047 221.916 279.398C222.345 279.749 222.56 280.282 222.56 280.999V285H221.416L221.099 284.184H221.056C220.884 284.398 220.709 284.574 220.53 284.71C220.351 284.846 220.145 284.946 219.912 285.011C219.679 285.075 219.396 285.107 219.063 285.107C218.709 285.107 218.39 285.039 218.107 284.903C217.828 284.767 217.608 284.56 217.447 284.28C217.286 283.997 217.205 283.639 217.205 283.206C217.205 282.569 217.429 282.1 217.876 281.799C218.324 281.494 218.995 281.326 219.891 281.294L220.933 281.262V280.999C220.933 280.683 220.85 280.452 220.686 280.306C220.521 280.159 220.292 280.085 219.998 280.085C219.708 280.085 219.423 280.127 219.144 280.209C218.865 280.291 218.585 280.395 218.306 280.521L217.764 279.414C218.082 279.246 218.439 279.113 218.833 279.017C219.23 278.92 219.64 278.872 220.062 278.872ZM220.933 282.218L220.299 282.239C219.769 282.254 219.4 282.348 219.192 282.524C218.988 282.699 218.886 282.93 218.886 283.217C218.886 283.467 218.96 283.646 219.106 283.754C219.253 283.858 219.445 283.91 219.681 283.91C220.032 283.91 220.327 283.806 220.567 283.598C220.811 283.39 220.933 283.095 220.933 282.712V282.218ZM227.593 278.882C228.27 278.882 228.816 279.146 229.231 279.672C229.65 280.198 229.859 280.97 229.859 281.987C229.859 282.667 229.761 283.24 229.564 283.706C229.367 284.167 229.095 284.517 228.748 284.753C228.4 284.989 228.001 285.107 227.55 285.107C227.26 285.107 227.011 285.072 226.803 285C226.596 284.925 226.418 284.83 226.271 284.715C226.125 284.597 225.998 284.472 225.89 284.339H225.804C225.833 284.483 225.854 284.629 225.869 284.78C225.883 284.93 225.89 285.077 225.89 285.22V287.643H224.252V278.995H225.584L225.815 279.774H225.89C225.998 279.613 226.128 279.464 226.282 279.328C226.436 279.192 226.621 279.085 226.835 279.006C227.054 278.924 227.306 278.882 227.593 278.882ZM227.066 280.193C226.78 280.193 226.553 280.252 226.384 280.37C226.216 280.488 226.092 280.666 226.014 280.902C225.938 281.138 225.897 281.437 225.89 281.799V281.976C225.89 282.363 225.926 282.69 225.998 282.959C226.073 283.228 226.196 283.432 226.368 283.571C226.544 283.711 226.784 283.781 227.088 283.781C227.339 283.781 227.544 283.711 227.706 283.571C227.867 283.432 227.987 283.228 228.065 282.959C228.148 282.687 228.189 282.356 228.189 281.965C228.189 281.378 228.098 280.936 227.915 280.639C227.732 280.341 227.45 280.193 227.066 280.193ZM233.689 278.882C234.244 278.882 234.722 278.99 235.123 279.205C235.524 279.416 235.834 279.724 236.052 280.128C236.271 280.533 236.38 281.027 236.38 281.611V282.406H232.507C232.525 282.868 232.663 283.231 232.921 283.496C233.182 283.757 233.544 283.888 234.006 283.888C234.389 283.888 234.74 283.849 235.059 283.77C235.377 283.691 235.705 283.573 236.042 283.416V284.683C235.744 284.83 235.433 284.937 235.107 285.005C234.785 285.073 234.393 285.107 233.931 285.107C233.329 285.107 232.796 284.996 232.33 284.774C231.868 284.552 231.505 284.214 231.24 283.759C230.978 283.305 230.848 282.732 230.848 282.041C230.848 281.339 230.966 280.755 231.202 280.29C231.442 279.82 231.775 279.47 232.201 279.237C232.627 279 233.123 278.882 233.689 278.882ZM233.7 280.048C233.381 280.048 233.116 280.15 232.905 280.354C232.697 280.558 232.577 280.879 232.545 281.315H234.844C234.84 281.072 234.795 280.855 234.709 280.666C234.627 280.476 234.502 280.325 234.333 280.214C234.169 280.103 233.958 280.048 233.7 280.048ZM241.063 278.882C241.146 278.882 241.241 278.888 241.348 278.898C241.459 278.906 241.549 278.916 241.617 278.931L241.493 280.467C241.439 280.449 241.362 280.436 241.262 280.429C241.166 280.418 241.081 280.413 241.01 280.413C240.799 280.413 240.593 280.44 240.392 280.494C240.195 280.547 240.018 280.635 239.86 280.757C239.703 280.875 239.577 281.033 239.484 281.229C239.395 281.423 239.35 281.661 239.35 281.944V285H237.712V278.995H238.953L239.194 280.005H239.275C239.393 279.801 239.54 279.615 239.715 279.446C239.894 279.274 240.097 279.138 240.322 279.038C240.551 278.934 240.799 278.882 241.063 278.882ZM248.202 277.147C249.215 277.147 249.954 277.366 250.42 277.803C250.885 278.236 251.118 278.834 251.118 279.597C251.118 279.94 251.066 280.27 250.962 280.585C250.859 280.896 250.688 281.174 250.452 281.417C250.219 281.661 249.908 281.854 249.518 281.998C249.127 282.137 248.646 282.207 248.073 282.207H247.358V285H245.693V277.147H248.202ZM248.116 278.512H247.358V280.843H247.906C248.218 280.843 248.488 280.802 248.717 280.719C248.946 280.637 249.124 280.508 249.249 280.333C249.374 280.157 249.437 279.931 249.437 279.656C249.437 279.269 249.33 278.983 249.115 278.796C248.9 278.607 248.567 278.512 248.116 278.512ZM255.823 278.882C255.906 278.882 256 278.888 256.108 278.898C256.219 278.906 256.308 278.916 256.376 278.931L256.253 280.467C256.199 280.449 256.122 280.436 256.022 280.429C255.925 280.418 255.841 280.413 255.77 280.413C255.558 280.413 255.352 280.44 255.152 280.494C254.955 280.547 254.778 280.635 254.62 280.757C254.463 280.875 254.337 281.033 254.244 281.229C254.155 281.423 254.11 281.661 254.11 281.944V285H252.472V278.995H253.712L253.954 280.005H254.035C254.153 279.801 254.3 279.615 254.475 279.446C254.654 279.274 254.856 279.138 255.082 279.038C255.311 278.934 255.558 278.882 255.823 278.882ZM259.105 278.995V285H257.467V278.995H259.105ZM258.289 276.643C258.532 276.643 258.742 276.7 258.917 276.814C259.092 276.925 259.18 277.135 259.18 277.443C259.18 277.747 259.092 277.958 258.917 278.077C258.742 278.191 258.532 278.249 258.289 278.249C258.042 278.249 257.83 278.191 257.655 278.077C257.483 277.958 257.397 277.747 257.397 277.443C257.397 277.135 257.483 276.925 257.655 276.814C257.83 276.7 258.042 276.643 258.289 276.643ZM263.268 285.107C262.673 285.107 262.167 285 261.748 284.785C261.329 284.567 261.01 284.23 260.792 283.775C260.573 283.321 260.464 282.739 260.464 282.03C260.464 281.296 260.587 280.698 260.834 280.236C261.085 279.77 261.431 279.428 261.871 279.21C262.315 278.992 262.829 278.882 263.413 278.882C263.828 278.882 264.186 278.924 264.487 279.006C264.791 279.085 265.056 279.18 265.282 279.291L264.798 280.558C264.541 280.454 264.301 280.37 264.079 280.306C263.857 280.238 263.635 280.204 263.413 280.204C263.126 280.204 262.888 280.272 262.698 280.408C262.508 280.54 262.367 280.741 262.274 281.009C262.181 281.278 262.134 281.614 262.134 282.019C262.134 282.417 262.184 282.746 262.285 283.007C262.385 283.269 262.53 283.464 262.72 283.593C262.91 283.718 263.14 283.781 263.413 283.781C263.753 283.781 264.055 283.736 264.32 283.646C264.585 283.553 264.843 283.424 265.094 283.26V284.662C264.843 284.819 264.58 284.932 264.304 285C264.032 285.072 263.687 285.107 263.268 285.107ZM268.966 278.882C269.521 278.882 269.999 278.99 270.4 279.205C270.801 279.416 271.111 279.724 271.33 280.128C271.548 280.533 271.657 281.027 271.657 281.611V282.406H267.785C267.803 282.868 267.94 283.231 268.198 283.496C268.46 283.757 268.821 283.888 269.283 283.888C269.666 283.888 270.017 283.849 270.336 283.77C270.655 283.691 270.982 283.573 271.319 283.416V284.683C271.022 284.83 270.71 284.937 270.384 285.005C270.062 285.073 269.67 285.107 269.208 285.107C268.606 285.107 268.073 284.996 267.607 284.774C267.146 284.552 266.782 284.214 266.517 283.759C266.256 283.305 266.125 282.732 266.125 282.041C266.125 281.339 266.243 280.755 266.479 280.29C266.719 279.82 267.052 279.47 267.479 279.237C267.905 279 268.401 278.882 268.966 278.882ZM268.977 280.048C268.658 280.048 268.393 280.15 268.182 280.354C267.974 280.558 267.854 280.879 267.822 281.315H270.121C270.118 281.072 270.073 280.855 269.987 280.666C269.904 280.476 269.779 280.325 269.611 280.214C269.446 280.103 269.235 280.048 268.977 280.048ZM277.179 283.217C277.179 283.625 277.082 283.971 276.889 284.253C276.699 284.533 276.414 284.746 276.035 284.893C275.655 285.036 275.182 285.107 274.617 285.107C274.198 285.107 273.838 285.081 273.537 285.027C273.24 284.973 272.939 284.884 272.635 284.758V283.405C272.961 283.552 273.31 283.673 273.682 283.77C274.058 283.863 274.388 283.91 274.67 283.91C274.989 283.91 275.216 283.863 275.353 283.77C275.492 283.673 275.562 283.548 275.562 283.394C275.562 283.294 275.533 283.204 275.476 283.125C275.422 283.043 275.304 282.952 275.122 282.852C274.939 282.748 274.653 282.613 274.262 282.449C273.886 282.291 273.576 282.132 273.333 281.971C273.093 281.81 272.914 281.62 272.796 281.401C272.681 281.179 272.624 280.898 272.624 280.558C272.624 280.003 272.839 279.586 273.269 279.307C273.702 279.024 274.28 278.882 275.003 278.882C275.376 278.882 275.73 278.92 276.067 278.995C276.407 279.07 276.756 279.19 277.114 279.355L276.62 280.537C276.323 280.408 276.042 280.302 275.777 280.22C275.515 280.137 275.249 280.096 274.977 280.096C274.737 280.096 274.556 280.128 274.434 280.193C274.312 280.257 274.251 280.356 274.251 280.488C274.251 280.585 274.282 280.671 274.343 280.746C274.407 280.821 274.529 280.905 274.708 280.999C274.891 281.088 275.157 281.204 275.508 281.348C275.848 281.487 276.144 281.634 276.395 281.788C276.645 281.938 276.839 282.126 276.975 282.352C277.111 282.574 277.179 282.862 277.179 283.217ZM288.571 281.063C288.571 281.668 288.496 282.22 288.345 282.717C288.195 283.211 287.966 283.638 287.658 283.996C287.353 284.354 286.967 284.629 286.498 284.823C286.028 285.013 285.473 285.107 284.833 285.107C284.192 285.107 283.637 285.013 283.167 284.823C282.698 284.629 282.31 284.354 282.002 283.996C281.698 283.638 281.47 283.21 281.32 282.712C281.169 282.214 281.094 281.661 281.094 281.052C281.094 280.239 281.227 279.532 281.492 278.931C281.76 278.326 282.172 277.856 282.727 277.523C283.282 277.19 283.987 277.024 284.843 277.024C285.695 277.024 286.396 277.19 286.943 277.523C287.495 277.856 287.903 278.326 288.168 278.931C288.437 279.536 288.571 280.247 288.571 281.063ZM282.84 281.063C282.84 281.611 282.908 282.083 283.044 282.481C283.184 282.875 283.4 283.179 283.694 283.394C283.987 283.605 284.367 283.711 284.833 283.711C285.305 283.711 285.688 283.605 285.982 283.394C286.276 283.179 286.489 282.875 286.621 282.481C286.757 282.083 286.825 281.611 286.825 281.063C286.825 280.239 286.671 279.591 286.363 279.119C286.055 278.646 285.549 278.41 284.843 278.41C284.374 278.41 283.991 278.517 283.694 278.732C283.4 278.943 283.184 279.248 283.044 279.645C282.908 280.039 282.84 280.512 282.84 281.063ZM293.48 278.882C294.121 278.882 294.637 279.058 295.027 279.409C295.417 279.756 295.612 280.315 295.612 281.084V285H293.974V281.493C293.974 281.063 293.895 280.739 293.738 280.521C293.584 280.302 293.34 280.193 293.007 280.193C292.506 280.193 292.164 280.363 291.981 280.703C291.799 281.043 291.708 281.534 291.708 282.175V285H290.069V278.995H291.321L291.541 279.763H291.632C291.761 279.556 291.921 279.387 292.11 279.258C292.304 279.129 292.517 279.035 292.75 278.974C292.986 278.913 293.229 278.882 293.48 278.882ZM298.937 285H297.299V276.643H298.937V285ZM302.299 278.995V285H300.661V278.995H302.299ZM301.483 276.643C301.726 276.643 301.936 276.7 302.111 276.814C302.287 276.925 302.375 277.135 302.375 277.443C302.375 277.747 302.287 277.958 302.111 278.077C301.936 278.191 301.726 278.249 301.483 278.249C301.236 278.249 301.025 278.191 300.849 278.077C300.677 277.958 300.591 277.747 300.591 277.443C300.591 277.135 300.677 276.925 300.849 276.814C301.025 276.7 301.236 276.643 301.483 276.643ZM307.434 278.882C308.075 278.882 308.591 279.058 308.981 279.409C309.371 279.756 309.566 280.315 309.566 281.084V285H307.928V281.493C307.928 281.063 307.849 280.739 307.692 280.521C307.538 280.302 307.294 280.193 306.961 280.193C306.46 280.193 306.118 280.363 305.936 280.703C305.753 281.043 305.662 281.534 305.662 282.175V285H304.023V278.995H305.275L305.495 279.763H305.586C305.715 279.556 305.875 279.387 306.064 279.258C306.258 279.129 306.471 279.035 306.704 278.974C306.94 278.913 307.183 278.882 307.434 278.882ZM313.729 278.882C314.284 278.882 314.762 278.99 315.163 279.205C315.564 279.416 315.874 279.724 316.092 280.128C316.311 280.533 316.42 281.027 316.42 281.611V282.406H312.547C312.565 282.868 312.703 283.231 312.961 283.496C313.222 283.757 313.584 283.888 314.046 283.888C314.429 283.888 314.78 283.849 315.099 283.77C315.417 283.691 315.745 283.573 316.082 283.416V284.683C315.784 284.83 315.473 284.937 315.147 285.005C314.825 285.073 314.433 285.107 313.971 285.107C313.369 285.107 312.836 284.996 312.37 284.774C311.908 284.552 311.545 284.214 311.28 283.759C311.018 283.305 310.888 282.732 310.888 282.041C310.888 281.339 311.006 280.755 311.242 280.29C311.482 279.82 311.815 279.47 312.241 279.237C312.667 279 313.163 278.882 313.729 278.882ZM313.74 280.048C313.421 280.048 313.156 280.15 312.945 280.354C312.737 280.558 312.617 280.879 312.585 281.315H314.884C314.88 281.072 314.835 280.855 314.75 280.666C314.667 280.476 314.542 280.325 314.374 280.214C314.209 280.103 313.998 280.048 313.74 280.048Z" fill="white"/>
<path d="M302.921 241.49C277.7 266.711 236.808 266.711 211.587 241.49C186.366 216.269 186.366 175.377 211.587 150.156C236.808 124.935 277.7 124.935 302.921 150.156C328.142 175.377 328.142 216.269 302.921 241.49ZM222.292 160.861C202.983 180.17 202.983 211.476 222.292 230.785C241.601 250.094 272.907 250.094 292.216 230.785C311.525 211.476 311.525 180.17 292.216 160.861C272.907 141.552 241.601 141.552 222.292 160.861Z" fill="#393636"/>
<path d="M211.586 241.49C202.554 232.458 196.403 220.95 193.911 208.422C191.419 195.894 192.698 182.909 197.587 171.108C202.475 159.307 210.752 149.221 221.373 142.124C231.993 135.028 244.48 131.24 257.253 131.24L257.253 146.379C247.474 146.379 237.914 149.279 229.783 154.712C221.652 160.145 215.315 167.867 211.573 176.901C207.83 185.936 206.851 195.878 208.759 205.469C210.667 215.06 215.376 223.87 222.291 230.785L211.586 241.49Z" fill="#E0A492"/>
<path d="M302.921 241.49C296.924 247.487 289.804 252.244 281.969 255.489C274.133 258.735 265.735 260.405 257.254 260.405C248.773 260.405 240.375 258.735 232.539 255.489C224.704 252.244 217.584 247.487 211.587 241.49L222.292 230.785C226.883 235.376 232.334 239.018 238.333 241.503C244.331 243.988 250.761 245.267 257.254 245.267C263.747 245.267 270.176 243.988 276.175 241.503C282.174 239.018 287.625 235.376 292.216 230.785L302.921 241.49Z" fill="white"/>
<path d="M88.2178 171.231H90.6616C91.7072 171.231 92.4985 171.378 93.0356 171.672C93.5728 171.965 93.8413 172.481 93.8413 173.219C93.8413 173.516 93.793 173.784 93.6963 174.024C93.6032 174.264 93.4671 174.461 93.2881 174.615C93.109 174.769 92.8906 174.869 92.6328 174.916V174.97C92.8942 175.023 93.1305 175.116 93.3418 175.249C93.5531 175.378 93.7214 175.568 93.8467 175.818C93.9756 176.065 94.04 176.395 94.04 176.807C94.04 177.283 93.9237 177.691 93.6909 178.031C93.4582 178.371 93.1252 178.633 92.6919 178.815C92.2622 178.994 91.7502 179.084 91.1558 179.084H88.2178V171.231ZM89.8828 174.341H90.8496C91.333 174.341 91.6678 174.266 91.854 174.116C92.0402 173.962 92.1333 173.736 92.1333 173.439C92.1333 173.138 92.0223 172.923 91.8003 172.794C91.5819 172.662 91.2345 172.596 90.7583 172.596H89.8828V174.341ZM89.8828 175.662V177.709H90.9678C91.4691 177.709 91.8182 177.612 92.0151 177.419C92.2121 177.225 92.3105 176.966 92.3105 176.64C92.3105 176.447 92.2676 176.277 92.1816 176.13C92.0957 175.983 91.9507 175.868 91.7466 175.786C91.5461 175.704 91.2686 175.662 90.9141 175.662H89.8828ZM97.1177 173.079V179.084H95.4795V173.079H97.1177ZM96.3013 170.726C96.5448 170.726 96.7542 170.784 96.9297 170.898C97.1051 171.009 97.1929 171.219 97.1929 171.527C97.1929 171.831 97.1051 172.042 96.9297 172.161C96.7542 172.275 96.5448 172.332 96.3013 172.332C96.0542 172.332 95.8429 172.275 95.6675 172.161C95.4956 172.042 95.4097 171.831 95.4097 171.527C95.4097 171.219 95.4956 171.009 95.6675 170.898C95.8429 170.784 96.0542 170.726 96.3013 170.726ZM100.598 181.726C99.7603 181.726 99.1193 181.58 98.6753 181.286C98.2349 180.996 98.0146 180.588 98.0146 180.061C98.0146 179.7 98.1274 179.397 98.353 179.154C98.5786 178.91 98.9098 178.737 99.3467 178.633C99.1784 178.561 99.0316 178.445 98.9062 178.284C98.7809 178.119 98.7183 177.945 98.7183 177.763C98.7183 177.533 98.7845 177.344 98.917 177.193C99.0495 177.039 99.241 176.889 99.4917 176.742C99.1766 176.606 98.9259 176.388 98.7397 176.087C98.5571 175.786 98.4658 175.432 98.4658 175.023C98.4658 174.586 98.5607 174.216 98.7505 173.911C98.9438 173.604 99.2231 173.369 99.5884 173.208C99.9572 173.047 100.405 172.966 100.931 172.966C101.042 172.966 101.171 172.973 101.318 172.988C101.465 173.002 101.599 173.018 101.721 173.036C101.846 173.054 101.93 173.068 101.973 173.079H104.068V173.911L103.128 174.153C103.214 174.286 103.278 174.427 103.321 174.578C103.364 174.728 103.386 174.887 103.386 175.056C103.386 175.7 103.16 176.203 102.709 176.565C102.261 176.923 101.638 177.102 100.84 177.102C100.65 177.091 100.471 177.077 100.303 177.059C100.22 177.123 100.158 177.191 100.115 177.263C100.072 177.335 100.05 177.41 100.05 177.489C100.05 177.567 100.083 177.634 100.147 177.687C100.215 177.738 100.315 177.777 100.448 177.806C100.584 177.831 100.752 177.843 100.953 177.843H101.973C102.632 177.843 103.133 177.985 103.477 178.267C103.824 178.55 103.998 178.966 103.998 179.514C103.998 180.215 103.704 180.76 103.117 181.146C102.534 181.533 101.694 181.726 100.598 181.726ZM100.668 180.658C101.058 180.658 101.393 180.62 101.672 180.545C101.955 180.473 102.172 180.369 102.322 180.233C102.473 180.101 102.548 179.941 102.548 179.755C102.548 179.605 102.503 179.485 102.414 179.395C102.328 179.309 102.195 179.249 102.016 179.213C101.841 179.177 101.615 179.159 101.339 179.159H100.491C100.29 179.159 100.109 179.191 99.9482 179.256C99.7907 179.32 99.6654 179.41 99.5723 179.524C99.4792 179.642 99.4326 179.779 99.4326 179.932C99.4326 180.158 99.54 180.335 99.7549 180.464C99.9733 180.593 100.278 180.658 100.668 180.658ZM100.931 176.103C101.239 176.103 101.465 176.008 101.608 175.818C101.751 175.628 101.823 175.371 101.823 175.045C101.823 174.683 101.748 174.413 101.597 174.234C101.45 174.051 101.228 173.96 100.931 173.96C100.63 173.96 100.405 174.051 100.254 174.234C100.104 174.413 100.029 174.683 100.029 175.045C100.029 175.371 100.102 175.628 100.249 175.818C100.399 176.008 100.627 176.103 100.931 176.103ZM106.818 181.726C105.98 181.726 105.339 181.58 104.895 181.286C104.455 180.996 104.234 180.588 104.234 180.061C104.234 179.7 104.347 179.397 104.573 179.154C104.798 178.91 105.13 178.737 105.566 178.633C105.398 178.561 105.251 178.445 105.126 178.284C105.001 178.119 104.938 177.945 104.938 177.763C104.938 177.533 105.004 177.344 105.137 177.193C105.269 177.039 105.461 176.889 105.711 176.742C105.396 176.606 105.146 176.388 104.959 176.087C104.777 175.786 104.686 175.432 104.686 175.023C104.686 174.586 104.78 174.216 104.97 173.911C105.164 173.604 105.443 173.369 105.808 173.208C106.177 173.047 106.625 172.966 107.151 172.966C107.262 172.966 107.391 172.973 107.538 172.988C107.684 173.002 107.819 173.018 107.94 173.036C108.066 173.054 108.15 173.068 108.193 173.079H110.288V173.911L109.348 174.153C109.434 174.286 109.498 174.427 109.541 174.578C109.584 174.728 109.605 174.887 109.605 175.056C109.605 175.7 109.38 176.203 108.929 176.565C108.481 176.923 107.858 177.102 107.06 177.102C106.87 177.091 106.691 177.077 106.522 177.059C106.44 177.123 106.377 177.191 106.334 177.263C106.292 177.335 106.27 177.41 106.27 177.489C106.27 177.567 106.302 177.634 106.367 177.687C106.435 177.738 106.535 177.777 106.667 177.806C106.804 177.831 106.972 177.843 107.172 177.843H108.193C108.852 177.843 109.353 177.985 109.697 178.267C110.044 178.55 110.218 178.966 110.218 179.514C110.218 180.215 109.924 180.76 109.337 181.146C108.753 181.533 107.914 181.726 106.818 181.726ZM106.888 180.658C107.278 180.658 107.613 180.62 107.892 180.545C108.175 180.473 108.392 180.369 108.542 180.233C108.692 180.101 108.768 179.941 108.768 179.755C108.768 179.605 108.723 179.485 108.633 179.395C108.547 179.309 108.415 179.249 108.236 179.213C108.06 179.177 107.835 179.159 107.559 179.159H106.71C106.51 179.159 106.329 179.191 106.168 179.256C106.01 179.32 105.885 179.41 105.792 179.524C105.699 179.642 105.652 179.779 105.652 179.932C105.652 180.158 105.76 180.335 105.975 180.464C106.193 180.593 106.497 180.658 106.888 180.658ZM107.151 176.103C107.459 176.103 107.684 176.008 107.828 175.818C107.971 175.628 108.042 175.371 108.042 175.045C108.042 174.683 107.967 174.413 107.817 174.234C107.67 174.051 107.448 173.96 107.151 173.96C106.85 173.96 106.625 174.051 106.474 174.234C106.324 174.413 106.249 174.683 106.249 175.045C106.249 175.371 106.322 175.628 106.469 175.818C106.619 176.008 106.847 176.103 107.151 176.103ZM113.757 172.966C114.312 172.966 114.79 173.074 115.191 173.288C115.592 173.5 115.902 173.808 116.121 174.212C116.339 174.617 116.448 175.111 116.448 175.695V176.49H112.576C112.594 176.952 112.731 177.315 112.989 177.58C113.251 177.841 113.612 177.972 114.074 177.972C114.457 177.972 114.808 177.933 115.127 177.854C115.446 177.775 115.773 177.657 116.11 177.499V178.767C115.813 178.914 115.501 179.021 115.175 179.089C114.853 179.157 114.461 179.191 113.999 179.191C113.397 179.191 112.864 179.08 112.398 178.858C111.937 178.636 111.573 178.298 111.308 177.843C111.047 177.388 110.916 176.815 110.916 176.124C110.916 175.423 111.034 174.839 111.271 174.373C111.51 173.904 111.843 173.553 112.27 173.321C112.696 173.084 113.192 172.966 113.757 172.966ZM113.768 174.132C113.449 174.132 113.184 174.234 112.973 174.438C112.765 174.642 112.646 174.962 112.613 175.399H114.912C114.909 175.156 114.864 174.939 114.778 174.749C114.695 174.56 114.57 174.409 114.402 174.298C114.237 174.187 114.026 174.132 113.768 174.132ZM121.132 172.966C121.214 172.966 121.309 172.972 121.417 172.982C121.528 172.989 121.617 173 121.685 173.015L121.562 174.551C121.508 174.533 121.431 174.52 121.331 174.513C121.234 174.502 121.15 174.497 121.078 174.497C120.867 174.497 120.661 174.524 120.46 174.578C120.264 174.631 120.086 174.719 119.929 174.841C119.771 174.959 119.646 175.116 119.553 175.313C119.463 175.507 119.418 175.745 119.418 176.028V179.084H117.78V173.079H119.021L119.263 174.089H119.343C119.461 173.885 119.608 173.698 119.784 173.53C119.963 173.358 120.165 173.222 120.391 173.122C120.62 173.018 120.867 172.966 121.132 172.966ZM131.922 171.231L129.253 179.084H127.438L124.773 171.231H126.455L127.932 175.904C127.957 175.983 127.998 176.132 128.055 176.35C128.112 176.565 128.17 176.794 128.227 177.037C128.288 177.277 128.329 177.476 128.351 177.634C128.372 177.476 128.41 177.277 128.463 177.037C128.521 176.798 128.576 176.57 128.63 176.355C128.687 176.137 128.728 175.987 128.753 175.904L130.241 171.231H131.922ZM135.247 172.955C136.053 172.955 136.67 173.131 137.1 173.482C137.53 173.833 137.745 174.366 137.745 175.082V179.084H136.601L136.284 178.267H136.241C136.069 178.482 135.893 178.658 135.714 178.794C135.535 178.93 135.329 179.03 135.097 179.095C134.864 179.159 134.581 179.191 134.248 179.191C133.894 179.191 133.575 179.123 133.292 178.987C133.013 178.851 132.792 178.643 132.631 178.364C132.47 178.081 132.39 177.723 132.39 177.29C132.39 176.653 132.613 176.183 133.061 175.883C133.509 175.578 134.18 175.41 135.075 175.378L136.117 175.346V175.082C136.117 174.767 136.035 174.536 135.87 174.39C135.705 174.243 135.476 174.169 135.183 174.169C134.893 174.169 134.608 174.21 134.329 174.293C134.049 174.375 133.77 174.479 133.491 174.604L132.948 173.498C133.267 173.33 133.623 173.197 134.017 173.1C134.415 173.004 134.825 172.955 135.247 172.955ZM136.117 176.302L135.483 176.323C134.953 176.337 134.585 176.432 134.377 176.608C134.173 176.783 134.071 177.014 134.071 177.301C134.071 177.551 134.144 177.73 134.291 177.838C134.438 177.942 134.629 177.994 134.866 177.994C135.217 177.994 135.512 177.89 135.752 177.682C135.995 177.474 136.117 177.179 136.117 176.796V176.302ZM142.788 172.966C142.87 172.966 142.965 172.972 143.073 172.982C143.184 172.989 143.273 173 143.341 173.015L143.218 174.551C143.164 174.533 143.087 174.52 142.987 174.513C142.89 174.502 142.806 174.497 142.734 174.497C142.523 174.497 142.317 174.524 142.117 174.578C141.92 174.631 141.743 174.719 141.585 174.841C141.427 174.959 141.302 175.116 141.209 175.313C141.119 175.507 141.075 175.745 141.075 176.028V179.084H139.437V173.079H140.677L140.919 174.089H141C141.118 173.885 141.264 173.698 141.44 173.53C141.619 173.358 141.821 173.222 142.047 173.122C142.276 173.018 142.523 172.966 142.788 172.966ZM146.07 173.079V179.084H144.432V173.079H146.07ZM145.253 170.726C145.497 170.726 145.706 170.784 145.882 170.898C146.057 171.009 146.145 171.219 146.145 171.527C146.145 171.831 146.057 172.042 145.882 172.161C145.706 172.275 145.497 172.332 145.253 172.332C145.006 172.332 144.795 172.275 144.62 172.161C144.448 172.042 144.362 171.831 144.362 171.527C144.362 171.219 144.448 171.009 144.62 170.898C144.795 170.784 145.006 170.726 145.253 170.726ZM150.254 172.955C151.06 172.955 151.677 173.131 152.107 173.482C152.537 173.833 152.751 174.366 152.751 175.082V179.084H151.607L151.291 178.267H151.248C151.076 178.482 150.9 178.658 150.721 178.794C150.542 178.93 150.336 179.03 150.104 179.095C149.871 179.159 149.588 179.191 149.255 179.191C148.9 179.191 148.582 179.123 148.299 178.987C148.02 178.851 147.799 178.643 147.638 178.364C147.477 178.081 147.396 177.723 147.396 177.29C147.396 176.653 147.62 176.183 148.068 175.883C148.515 175.578 149.187 175.41 150.082 175.378L151.124 175.346V175.082C151.124 174.767 151.042 174.536 150.877 174.39C150.712 174.243 150.483 174.169 150.189 174.169C149.899 174.169 149.615 174.21 149.335 174.293C149.056 174.375 148.777 174.479 148.498 174.604L147.955 173.498C148.274 173.33 148.63 173.197 149.024 173.1C149.421 173.004 149.831 172.955 150.254 172.955ZM151.124 176.302L150.49 176.323C149.96 176.337 149.591 176.432 149.384 176.608C149.18 176.783 149.078 177.014 149.078 177.301C149.078 177.551 149.151 177.73 149.298 177.838C149.445 177.942 149.636 177.994 149.873 177.994C150.223 177.994 150.519 177.89 150.759 177.682C151.002 177.474 151.124 177.179 151.124 176.796V176.302ZM156.973 177.886C157.152 177.886 157.326 177.868 157.494 177.832C157.666 177.797 157.836 177.752 158.004 177.698V178.917C157.829 178.996 157.611 179.061 157.349 179.111C157.091 179.164 156.808 179.191 156.5 179.191C156.142 179.191 155.82 179.134 155.534 179.019C155.251 178.901 155.027 178.699 154.862 178.412C154.701 178.122 154.621 177.72 154.621 177.204V174.309H153.836V173.616L154.739 173.068L155.211 171.801H156.259V173.079H157.94V174.309H156.259V177.204C156.259 177.433 156.323 177.605 156.452 177.72C156.585 177.831 156.758 177.886 156.973 177.886ZM160.862 173.079V179.084H159.224V173.079H160.862ZM160.045 170.726C160.289 170.726 160.498 170.784 160.674 170.898C160.849 171.009 160.937 171.219 160.937 171.527C160.937 171.831 160.849 172.042 160.674 172.161C160.498 172.275 160.289 172.332 160.045 172.332C159.798 172.332 159.587 172.275 159.412 172.161C159.24 172.042 159.154 171.831 159.154 171.527C159.154 171.219 159.24 171.009 159.412 170.898C159.587 170.784 159.798 170.726 160.045 170.726ZM168.043 176.071C168.043 176.572 167.975 177.016 167.839 177.403C167.706 177.789 167.511 178.117 167.253 178.386C166.999 178.651 166.691 178.851 166.33 178.987C165.972 179.123 165.567 179.191 165.116 179.191C164.693 179.191 164.305 179.123 163.95 178.987C163.599 178.851 163.293 178.651 163.032 178.386C162.774 178.117 162.573 177.789 162.43 177.403C162.291 177.016 162.221 176.572 162.221 176.071C162.221 175.405 162.339 174.841 162.575 174.379C162.812 173.917 163.148 173.566 163.585 173.326C164.022 173.086 164.543 172.966 165.148 172.966C165.71 172.966 166.208 173.086 166.641 173.326C167.078 173.566 167.42 173.917 167.667 174.379C167.918 174.841 168.043 175.405 168.043 176.071ZM163.891 176.071C163.891 176.465 163.934 176.796 164.02 177.064C164.106 177.333 164.24 177.535 164.423 177.671C164.605 177.807 164.844 177.875 165.137 177.875C165.427 177.875 165.662 177.807 165.841 177.671C166.023 177.535 166.156 177.333 166.238 177.064C166.324 176.796 166.367 176.465 166.367 176.071C166.367 175.673 166.324 175.344 166.238 175.082C166.156 174.817 166.023 174.619 165.841 174.486C165.658 174.354 165.42 174.287 165.126 174.287C164.693 174.287 164.378 174.436 164.181 174.733C163.988 175.03 163.891 175.476 163.891 176.071ZM172.807 172.966C173.448 172.966 173.964 173.142 174.354 173.493C174.744 173.84 174.939 174.398 174.939 175.168V179.084H173.301V175.577C173.301 175.147 173.222 174.823 173.065 174.604C172.911 174.386 172.667 174.277 172.334 174.277C171.833 174.277 171.491 174.447 171.309 174.787C171.126 175.127 171.035 175.618 171.035 176.259V179.084H169.396V173.079H170.648L170.868 173.847H170.959C171.088 173.639 171.248 173.471 171.438 173.342C171.631 173.213 171.844 173.118 172.077 173.057C172.313 172.997 172.556 172.966 172.807 172.966ZM90.6401 186.119C91.0627 186.119 91.4386 186.185 91.7681 186.317C92.0975 186.45 92.3571 186.643 92.5469 186.897C92.7402 187.152 92.8369 187.461 92.8369 187.827C92.8369 188.331 92.6865 188.756 92.3857 189.099C92.0885 189.443 91.7161 189.744 91.2686 190.002L92.7939 191.49C92.9443 191.243 93.0715 190.981 93.1753 190.705C93.2827 190.43 93.3758 190.152 93.4546 189.873H95.1626C95.0516 190.285 94.8887 190.725 94.6738 191.194C94.4626 191.66 94.1922 192.098 93.8628 192.51L95.4795 194.084H93.4546L92.8369 193.477C92.6257 193.624 92.3983 193.751 92.1548 193.858C91.9149 193.966 91.6571 194.048 91.3813 194.105C91.1092 194.163 90.821 194.191 90.5166 194.191C89.9222 194.191 89.4119 194.098 88.9858 193.912C88.5597 193.726 88.2339 193.466 88.0083 193.133C87.7827 192.797 87.6699 192.406 87.6699 191.962C87.6699 191.59 87.7272 191.271 87.8418 191.006C87.9564 190.738 88.1211 190.503 88.3359 190.303C88.5508 190.099 88.8086 189.911 89.1094 189.739C88.9196 189.517 88.7674 189.309 88.6528 189.116C88.5418 188.922 88.4613 188.731 88.4111 188.541C88.3646 188.348 88.3413 188.145 88.3413 187.934C88.3413 187.562 88.438 187.241 88.6313 186.973C88.8283 186.7 89.0986 186.491 89.4424 186.344C89.7897 186.194 90.189 186.119 90.6401 186.119ZM90.0654 190.716C89.9294 190.82 89.8094 190.927 89.7056 191.038C89.6053 191.149 89.5283 191.268 89.4746 191.393C89.4209 191.518 89.394 191.656 89.394 191.807C89.394 192.122 89.5122 192.369 89.7485 192.548C89.9849 192.727 90.2785 192.816 90.6294 192.816C90.8657 192.816 91.0859 192.788 91.29 192.73C91.4941 192.673 91.6803 192.592 91.8486 192.489L90.0654 190.716ZM90.6294 187.386C90.4468 187.386 90.2713 187.433 90.103 187.526C89.9383 187.619 89.856 187.793 89.856 188.047C89.856 188.226 89.9025 188.401 89.9956 188.573C90.0887 188.741 90.2122 188.913 90.3662 189.089C90.6742 188.92 90.9105 188.752 91.0752 188.584C91.2399 188.412 91.3223 188.217 91.3223 187.998C91.3223 187.78 91.2471 187.624 91.0967 187.531C90.9499 187.434 90.7941 187.386 90.6294 187.386ZM105.84 190.082C105.84 190.967 105.67 191.706 105.33 192.301C104.993 192.891 104.505 193.337 103.864 193.638C103.223 193.935 102.451 194.084 101.549 194.084H99.3252V186.231H101.791C102.614 186.231 103.328 186.378 103.934 186.672C104.539 186.962 105.008 187.393 105.341 187.966C105.674 188.536 105.84 189.241 105.84 190.082ZM104.111 190.125C104.111 189.545 104.025 189.069 103.853 188.697C103.685 188.321 103.434 188.043 103.101 187.864C102.772 187.685 102.363 187.596 101.876 187.596H100.99V192.709H101.705C102.517 192.709 103.121 192.492 103.515 192.059C103.912 191.626 104.111 190.981 104.111 190.125ZM109.815 187.966C110.37 187.966 110.848 188.074 111.249 188.288C111.65 188.5 111.96 188.808 112.178 189.212C112.397 189.617 112.506 190.111 112.506 190.695V191.49H108.633C108.651 191.952 108.789 192.315 109.047 192.58C109.308 192.841 109.67 192.972 110.132 192.972C110.515 192.972 110.866 192.933 111.185 192.854C111.503 192.775 111.831 192.657 112.167 192.499V193.767C111.87 193.914 111.559 194.021 111.233 194.089C110.911 194.157 110.519 194.191 110.057 194.191C109.455 194.191 108.922 194.08 108.456 193.858C107.994 193.636 107.631 193.298 107.366 192.843C107.104 192.388 106.974 191.815 106.974 191.124C106.974 190.423 107.092 189.839 107.328 189.373C107.568 188.904 107.901 188.553 108.327 188.321C108.753 188.084 109.249 187.966 109.815 187.966ZM109.826 189.132C109.507 189.132 109.242 189.234 109.031 189.438C108.823 189.642 108.703 189.962 108.671 190.399H110.97C110.966 190.156 110.921 189.939 110.835 189.749C110.753 189.56 110.628 189.409 110.459 189.298C110.295 189.187 110.083 189.132 109.826 189.132ZM116.298 187.955C117.104 187.955 117.721 188.131 118.151 188.482C118.581 188.833 118.795 189.366 118.795 190.082V194.084H117.651L117.334 193.267H117.292C117.12 193.482 116.944 193.658 116.765 193.794C116.586 193.93 116.38 194.03 116.147 194.095C115.915 194.159 115.632 194.191 115.299 194.191C114.944 194.191 114.626 194.123 114.343 193.987C114.063 193.851 113.843 193.643 113.682 193.364C113.521 193.081 113.44 192.723 113.44 192.29C113.44 191.653 113.664 191.183 114.112 190.883C114.559 190.578 115.231 190.41 116.126 190.378L117.168 190.346V190.082C117.168 189.767 117.086 189.536 116.921 189.39C116.756 189.243 116.527 189.169 116.233 189.169C115.943 189.169 115.659 189.21 115.379 189.293C115.1 189.375 114.821 189.479 114.542 189.604L113.999 188.498C114.318 188.33 114.674 188.197 115.068 188.1C115.465 188.004 115.875 187.955 116.298 187.955ZM117.168 191.302L116.534 191.323C116.004 191.337 115.635 191.432 115.428 191.608C115.224 191.783 115.122 192.014 115.122 192.301C115.122 192.551 115.195 192.73 115.342 192.838C115.489 192.942 115.68 192.994 115.917 192.994C116.267 192.994 116.563 192.89 116.803 192.682C117.046 192.474 117.168 192.179 117.168 191.796V191.302ZM122.125 194.084H120.487V185.726H122.125V194.084ZM128.039 192.301C128.039 192.709 127.942 193.054 127.749 193.337C127.559 193.617 127.275 193.83 126.895 193.976C126.515 194.12 126.043 194.191 125.477 194.191C125.058 194.191 124.698 194.164 124.397 194.111C124.1 194.057 123.799 193.967 123.495 193.842V192.489C123.821 192.635 124.17 192.757 124.542 192.854C124.918 192.947 125.248 192.994 125.531 192.994C125.849 192.994 126.077 192.947 126.213 192.854C126.353 192.757 126.422 192.632 126.422 192.478C126.422 192.378 126.394 192.288 126.336 192.209C126.283 192.127 126.165 192.036 125.982 191.935C125.799 191.832 125.513 191.697 125.123 191.533C124.747 191.375 124.437 191.216 124.193 191.055C123.953 190.893 123.774 190.704 123.656 190.485C123.542 190.263 123.484 189.982 123.484 189.642C123.484 189.087 123.699 188.67 124.129 188.391C124.562 188.108 125.14 187.966 125.864 187.966C126.236 187.966 126.591 188.004 126.927 188.079C127.267 188.154 127.617 188.274 127.975 188.439L127.48 189.62C127.183 189.492 126.902 189.386 126.637 189.304C126.376 189.221 126.109 189.18 125.837 189.18C125.597 189.18 125.416 189.212 125.294 189.277C125.173 189.341 125.112 189.44 125.112 189.572C125.112 189.669 125.142 189.755 125.203 189.83C125.268 189.905 125.389 189.989 125.568 190.082C125.751 190.172 126.018 190.288 126.369 190.432C126.709 190.571 127.004 190.718 127.255 190.872C127.506 191.022 127.699 191.21 127.835 191.436C127.971 191.658 128.039 191.946 128.039 192.301ZM139.431 190.147C139.431 190.752 139.356 191.303 139.206 191.801C139.055 192.295 138.826 192.721 138.518 193.079C138.214 193.438 137.827 193.713 137.358 193.907C136.889 194.096 136.334 194.191 135.693 194.191C135.052 194.191 134.497 194.096 134.028 193.907C133.559 193.713 133.17 193.438 132.862 193.079C132.558 192.721 132.331 192.293 132.18 191.796C132.03 191.298 131.955 190.745 131.955 190.136C131.955 189.323 132.087 188.616 132.352 188.015C132.621 187.409 133.032 186.94 133.587 186.607C134.142 186.274 134.848 186.108 135.704 186.108C136.556 186.108 137.256 186.274 137.804 186.607C138.355 186.94 138.763 187.409 139.028 188.015C139.297 188.62 139.431 189.33 139.431 190.147ZM133.7 190.147C133.7 190.695 133.768 191.167 133.904 191.565C134.044 191.959 134.261 192.263 134.554 192.478C134.848 192.689 135.227 192.795 135.693 192.795C136.166 192.795 136.549 192.689 136.842 192.478C137.136 192.263 137.349 191.959 137.481 191.565C137.618 191.167 137.686 190.695 137.686 190.147C137.686 189.323 137.532 188.675 137.224 188.203C136.916 187.73 136.409 187.494 135.704 187.494C135.235 187.494 134.851 187.601 134.554 187.816C134.261 188.027 134.044 188.331 133.904 188.729C133.768 189.123 133.7 189.595 133.7 190.147ZM144.34 187.966C144.981 187.966 145.497 188.142 145.887 188.493C146.278 188.84 146.473 189.398 146.473 190.168V194.084H144.834V190.577C144.834 190.147 144.756 189.823 144.598 189.604C144.444 189.386 144.201 189.277 143.868 189.277C143.366 189.277 143.024 189.447 142.842 189.787C142.659 190.127 142.568 190.618 142.568 191.259V194.084H140.93V188.079H142.181L142.401 188.847H142.493C142.622 188.639 142.781 188.471 142.971 188.342C143.164 188.213 143.377 188.118 143.61 188.057C143.846 187.997 144.09 187.966 144.34 187.966ZM149.797 194.084H148.159V185.726H149.797V194.084ZM153.16 188.079V194.084H151.521V188.079H153.16ZM152.343 185.726C152.587 185.726 152.796 185.784 152.972 185.898C153.147 186.009 153.235 186.219 153.235 186.527C153.235 186.831 153.147 187.042 152.972 187.161C152.796 187.275 152.587 187.332 152.343 187.332C152.096 187.332 151.885 187.275 151.709 187.161C151.538 187.042 151.452 186.831 151.452 186.527C151.452 186.219 151.538 186.009 151.709 185.898C151.885 185.784 152.096 185.726 152.343 185.726ZM158.294 187.966C158.935 187.966 159.451 188.142 159.841 188.493C160.232 188.84 160.427 189.398 160.427 190.168V194.084H158.789V190.577C158.789 190.147 158.71 189.823 158.552 189.604C158.398 189.386 158.155 189.277 157.822 189.277C157.32 189.277 156.979 189.447 156.796 189.787C156.613 190.127 156.522 190.618 156.522 191.259V194.084H154.884V188.079H156.135L156.355 188.847H156.447C156.576 188.639 156.735 188.471 156.925 188.342C157.118 188.213 157.331 188.118 157.564 188.057C157.8 187.997 158.044 187.966 158.294 187.966ZM164.589 187.966C165.144 187.966 165.622 188.074 166.023 188.288C166.424 188.5 166.734 188.808 166.953 189.212C167.171 189.617 167.28 190.111 167.28 190.695V191.49H163.408C163.426 191.952 163.563 192.315 163.821 192.58C164.083 192.841 164.444 192.972 164.906 192.972C165.289 192.972 165.64 192.933 165.959 192.854C166.278 192.775 166.605 192.657 166.942 192.499V193.767C166.645 193.914 166.333 194.021 166.007 194.089C165.685 194.157 165.293 194.191 164.831 194.191C164.229 194.191 163.696 194.08 163.23 193.858C162.769 193.636 162.405 193.298 162.14 192.843C161.879 192.388 161.748 191.815 161.748 191.124C161.748 190.423 161.866 189.839 162.103 189.373C162.342 188.904 162.675 188.553 163.102 188.321C163.528 188.084 164.024 187.966 164.589 187.966ZM164.6 189.132C164.281 189.132 164.016 189.234 163.805 189.438C163.597 189.642 163.478 189.962 163.445 190.399H165.744C165.741 190.156 165.696 189.939 165.61 189.749C165.528 189.56 165.402 189.409 165.234 189.298C165.069 189.187 164.858 189.132 164.6 189.132Z" fill="white"/>
<path d="M343.71 179.084L341.82 172.923H341.771C341.779 173.07 341.789 173.292 341.804 173.589C341.822 173.883 341.838 174.196 341.852 174.529C341.866 174.862 341.874 175.163 341.874 175.432V179.084H340.386V171.231H342.652L344.511 177.236H344.543L346.514 171.231H348.781V179.084H347.229V175.367C347.229 175.12 347.232 174.835 347.239 174.513C347.25 174.191 347.263 173.885 347.277 173.595C347.291 173.301 347.302 173.081 347.309 172.934H347.261L345.236 179.084H343.71ZM356.091 176.071C356.091 176.572 356.023 177.016 355.887 177.403C355.754 177.789 355.559 178.117 355.301 178.386C355.047 178.651 354.739 178.851 354.377 178.987C354.019 179.123 353.615 179.191 353.164 179.191C352.741 179.191 352.353 179.123 351.998 178.987C351.647 178.851 351.341 178.651 351.08 178.386C350.822 178.117 350.621 177.789 350.478 177.403C350.338 177.016 350.269 176.572 350.269 176.071C350.269 175.405 350.387 174.841 350.623 174.379C350.859 173.917 351.196 173.566 351.633 173.326C352.07 173.086 352.591 172.966 353.196 172.966C353.758 172.966 354.256 173.086 354.689 173.326C355.126 173.566 355.468 173.917 355.715 174.379C355.965 174.841 356.091 175.405 356.091 176.071ZM351.939 176.071C351.939 176.465 351.982 176.796 352.068 177.064C352.154 177.333 352.288 177.535 352.471 177.671C352.653 177.807 352.891 177.875 353.185 177.875C353.475 177.875 353.71 177.807 353.889 177.671C354.071 177.535 354.204 177.333 354.286 177.064C354.372 176.796 354.415 176.465 354.415 176.071C354.415 175.673 354.372 175.344 354.286 175.082C354.204 174.817 354.071 174.619 353.889 174.486C353.706 174.354 353.468 174.287 353.174 174.287C352.741 174.287 352.426 174.436 352.229 174.733C352.036 175.03 351.939 175.476 351.939 176.071ZM360.796 172.966C360.878 172.966 360.973 172.972 361.081 172.982C361.192 172.989 361.281 173 361.349 173.015L361.226 174.551C361.172 174.533 361.095 174.52 360.995 174.513C360.898 174.502 360.814 174.497 360.742 174.497C360.531 174.497 360.325 174.524 360.125 174.578C359.928 174.631 359.75 174.719 359.593 174.841C359.435 174.959 359.31 175.116 359.217 175.313C359.127 175.507 359.083 175.745 359.083 176.028V179.084H357.444V173.079H358.685L358.927 174.089H359.007C359.125 173.885 359.272 173.698 359.448 173.53C359.627 173.358 359.829 173.222 360.055 173.122C360.284 173.018 360.531 172.966 360.796 172.966ZM364.916 172.966C365.471 172.966 365.949 173.074 366.35 173.288C366.751 173.5 367.06 173.808 367.279 174.212C367.497 174.617 367.606 175.111 367.606 175.695V176.49H363.734C363.752 176.952 363.89 177.315 364.147 177.58C364.409 177.841 364.771 177.972 365.232 177.972C365.616 177.972 365.966 177.933 366.285 177.854C366.604 177.775 366.931 177.657 367.268 177.499V178.767C366.971 178.914 366.659 179.021 366.333 179.089C366.011 179.157 365.619 179.191 365.157 179.191C364.556 179.191 364.022 179.08 363.557 178.858C363.095 178.636 362.731 178.298 362.466 177.843C362.205 177.388 362.074 176.815 362.074 176.124C362.074 175.423 362.192 174.839 362.429 174.373C362.669 173.904 363.002 173.553 363.428 173.321C363.854 173.084 364.35 172.966 364.916 172.966ZM364.926 174.132C364.608 174.132 364.343 174.234 364.131 174.438C363.924 174.642 363.804 174.962 363.771 175.399H366.07C366.067 175.156 366.022 174.939 365.936 174.749C365.854 174.56 365.728 174.409 365.56 174.298C365.395 174.187 365.184 174.132 364.926 174.132ZM373.563 179.084H371.925V171.231H376.426V172.596H373.563V174.62H376.227V175.979H373.563V179.084ZM379.471 179.084H377.833V170.726H379.471V179.084ZM383.671 172.966C384.226 172.966 384.704 173.074 385.105 173.288C385.507 173.5 385.816 173.808 386.035 174.212C386.253 174.617 386.362 175.111 386.362 175.695V176.49H382.49C382.508 176.952 382.646 177.315 382.903 177.58C383.165 177.841 383.526 177.972 383.988 177.972C384.371 177.972 384.722 177.933 385.041 177.854C385.36 177.775 385.687 177.657 386.024 177.499V178.767C385.727 178.914 385.415 179.021 385.089 179.089C384.767 179.157 384.375 179.191 383.913 179.191C383.312 179.191 382.778 179.08 382.312 178.858C381.851 178.636 381.487 178.298 381.222 177.843C380.961 177.388 380.83 176.815 380.83 176.124C380.83 175.423 380.948 174.839 381.185 174.373C381.424 173.904 381.757 173.553 382.184 173.321C382.61 173.084 383.106 172.966 383.671 172.966ZM383.682 174.132C383.363 174.132 383.098 174.234 382.887 174.438C382.68 174.642 382.56 174.962 382.527 175.399H384.826C384.823 175.156 384.778 174.939 384.692 174.749C384.61 174.56 384.484 174.409 384.316 174.298C384.151 174.187 383.94 174.132 383.682 174.132ZM388.924 176.017L386.991 173.079H388.849L390.015 174.991L391.191 173.079H393.049L391.094 176.017L393.141 179.084H391.277L390.015 177.027L388.747 179.084H386.889L388.924 176.017ZM395.692 173.079V179.084H394.054V173.079H395.692ZM394.875 170.726C395.119 170.726 395.328 170.784 395.504 170.898C395.679 171.009 395.767 171.219 395.767 171.527C395.767 171.831 395.679 172.042 395.504 172.161C395.328 172.275 395.119 172.332 394.875 172.332C394.628 172.332 394.417 172.275 394.242 172.161C394.07 172.042 393.984 171.831 393.984 171.527C393.984 171.219 394.07 171.009 394.242 170.898C394.417 170.784 394.628 170.726 394.875 170.726ZM399.054 170.726V172.671C399.054 172.896 399.047 173.12 399.033 173.342C399.022 173.564 399.008 173.736 398.99 173.858H399.054C399.212 173.611 399.427 173.401 399.699 173.229C399.971 173.054 400.324 172.966 400.757 172.966C401.43 172.966 401.976 173.229 402.395 173.756C402.814 174.282 403.023 175.054 403.023 176.071C403.023 176.755 402.927 177.329 402.733 177.795C402.54 178.257 402.27 178.606 401.922 178.842C401.575 179.075 401.172 179.191 400.714 179.191C400.273 179.191 399.926 179.113 399.672 178.955C399.418 178.797 399.212 178.62 399.054 178.423H398.941L398.667 179.084H397.416V170.726H399.054ZM400.23 174.277C399.944 174.277 399.717 174.336 399.548 174.454C399.38 174.572 399.257 174.749 399.178 174.986C399.103 175.222 399.061 175.521 399.054 175.883V176.06C399.054 176.644 399.14 177.091 399.312 177.403C399.484 177.711 399.797 177.865 400.252 177.865C400.589 177.865 400.855 177.709 401.052 177.397C401.253 177.086 401.353 176.636 401.353 176.049C401.353 175.462 401.253 175.02 401.052 174.723C400.852 174.425 400.578 174.277 400.23 174.277ZM406.015 173.079V179.084H404.377V173.079H406.015ZM405.199 170.726C405.442 170.726 405.652 170.784 405.827 170.898C406.003 171.009 406.09 171.219 406.09 171.527C406.09 171.831 406.003 172.042 405.827 172.161C405.652 172.275 405.442 172.332 405.199 172.332C404.952 172.332 404.74 172.275 404.565 172.161C404.393 172.042 404.307 171.831 404.307 171.527C404.307 171.219 404.393 171.009 404.565 170.898C404.74 170.784 404.952 170.726 405.199 170.726ZM409.377 179.084H407.739V170.726H409.377V179.084ZM413.578 172.966C414.133 172.966 414.611 173.074 415.012 173.288C415.413 173.5 415.722 173.808 415.941 174.212C416.159 174.617 416.269 175.111 416.269 175.695V176.49H412.396C412.414 176.952 412.552 177.315 412.81 177.58C413.071 177.841 413.433 177.972 413.895 177.972C414.278 177.972 414.629 177.933 414.947 177.854C415.266 177.775 415.594 177.657 415.93 177.499V178.767C415.633 178.914 415.321 179.021 414.996 179.089C414.673 179.157 414.281 179.191 413.819 179.191C413.218 179.191 412.684 179.08 412.219 178.858C411.757 178.636 411.393 178.298 411.128 177.843C410.867 177.388 410.736 176.815 410.736 176.124C410.736 175.423 410.854 174.839 411.091 174.373C411.331 173.904 411.664 173.553 412.09 173.321C412.516 173.084 413.012 172.966 413.578 172.966ZM413.588 174.132C413.27 174.132 413.005 174.234 412.793 174.438C412.586 174.642 412.466 174.962 412.434 175.399H414.732C414.729 175.156 414.684 174.939 414.598 174.749C414.516 174.56 414.39 174.409 414.222 174.298C414.057 174.187 413.846 174.132 413.588 174.132ZM346.901 190.082C346.901 190.967 346.731 191.706 346.391 192.301C346.054 192.891 345.565 193.337 344.924 193.638C344.283 193.935 343.512 194.084 342.609 194.084H340.386V186.231H342.851C343.675 186.231 344.389 186.378 344.994 186.672C345.599 186.962 346.068 187.393 346.401 187.966C346.734 188.536 346.901 189.241 346.901 190.082ZM345.171 190.125C345.171 189.545 345.085 189.069 344.914 188.697C344.745 188.321 344.495 188.043 344.162 187.864C343.832 187.685 343.424 187.596 342.937 187.596H342.051V192.709H342.765C343.578 192.709 344.181 192.492 344.575 192.059C344.973 191.626 345.171 190.981 345.171 190.125ZM350.875 187.966C351.431 187.966 351.909 188.074 352.31 188.288C352.711 188.5 353.02 188.808 353.239 189.212C353.457 189.617 353.566 190.111 353.566 190.695V191.49H349.694C349.712 191.952 349.85 192.315 350.107 192.58C350.369 192.841 350.73 192.972 351.192 192.972C351.576 192.972 351.926 192.933 352.245 192.854C352.564 192.775 352.891 192.657 353.228 192.499V193.767C352.931 193.914 352.619 194.021 352.293 194.089C351.971 194.157 351.579 194.191 351.117 194.191C350.516 194.191 349.982 194.08 349.517 193.858C349.055 193.636 348.691 193.298 348.426 192.843C348.165 192.388 348.034 191.815 348.034 191.124C348.034 190.423 348.152 189.839 348.389 189.373C348.629 188.904 348.962 188.553 349.388 188.321C349.814 188.084 350.31 187.966 350.875 187.966ZM350.886 189.132C350.568 189.132 350.303 189.234 350.091 189.438C349.884 189.642 349.764 189.962 349.731 190.399H352.03C352.027 190.156 351.982 189.939 351.896 189.749C351.814 189.56 351.688 189.409 351.52 189.298C351.355 189.187 351.144 189.132 350.886 189.132ZM356.537 194.084H354.898V185.726H356.537V194.084ZM359.899 188.079V194.084H358.261V188.079H359.899ZM359.083 185.726C359.326 185.726 359.535 185.784 359.711 185.898C359.886 186.009 359.974 186.219 359.974 186.527C359.974 186.831 359.886 187.042 359.711 187.161C359.535 187.275 359.326 187.332 359.083 187.332C358.835 187.332 358.624 187.275 358.449 187.161C358.277 187.042 358.191 186.831 358.191 186.527C358.191 186.219 358.277 186.009 358.449 185.898C358.624 185.784 358.835 185.726 359.083 185.726ZM363.052 194.084L360.764 188.079H362.477L363.637 191.5C363.702 191.701 363.752 191.912 363.788 192.134C363.827 192.356 363.854 192.555 363.868 192.73H363.911C363.922 192.541 363.947 192.338 363.986 192.123C364.029 191.909 364.085 191.701 364.153 191.5L365.308 188.079H367.021L364.733 194.084H363.052ZM370.362 187.966C370.917 187.966 371.395 188.074 371.796 188.288C372.197 188.5 372.507 188.808 372.725 189.212C372.944 189.617 373.053 190.111 373.053 190.695V191.49H369.18C369.198 191.952 369.336 192.315 369.594 192.58C369.855 192.841 370.217 192.972 370.679 192.972C371.062 192.972 371.413 192.933 371.731 192.854C372.05 192.775 372.378 192.657 372.714 192.499V193.767C372.417 193.914 372.106 194.021 371.78 194.089C371.458 194.157 371.065 194.191 370.604 194.191C370.002 194.191 369.468 194.08 369.003 193.858C368.541 193.636 368.178 193.298 367.913 192.843C367.651 192.388 367.521 191.815 367.521 191.124C367.521 190.423 367.639 189.839 367.875 189.373C368.115 188.904 368.448 188.553 368.874 188.321C369.3 188.084 369.796 187.966 370.362 187.966ZM370.373 189.132C370.054 189.132 369.789 189.234 369.578 189.438C369.37 189.642 369.25 189.962 369.218 190.399H371.517C371.513 190.156 371.468 189.939 371.382 189.749C371.3 189.56 371.175 189.409 371.006 189.298C370.842 189.187 370.63 189.132 370.373 189.132ZM377.736 187.966C377.819 187.966 377.914 187.972 378.021 187.982C378.132 187.989 378.222 188 378.29 188.015L378.166 189.551C378.112 189.533 378.035 189.52 377.935 189.513C377.838 189.502 377.754 189.497 377.683 189.497C377.471 189.497 377.265 189.524 377.065 189.578C376.868 189.631 376.691 189.719 376.533 189.841C376.376 189.959 376.25 190.116 376.157 190.313C376.068 190.507 376.023 190.745 376.023 191.028V194.084H374.385V188.079H375.625L375.867 189.089H375.948C376.066 188.885 376.213 188.698 376.388 188.53C376.567 188.358 376.77 188.222 376.995 188.122C377.224 188.018 377.471 187.966 377.736 187.966ZM378.521 188.079H380.314L381.448 191.457C381.484 191.565 381.514 191.674 381.539 191.785C381.564 191.896 381.586 192.011 381.604 192.129C381.621 192.247 381.636 192.37 381.646 192.499H381.679C381.7 192.306 381.729 192.125 381.765 191.957C381.804 191.789 381.852 191.622 381.91 191.457L383.021 188.079H384.778L382.237 194.852C382.083 195.267 381.883 195.613 381.636 195.889C381.389 196.168 381.104 196.377 380.782 196.517C380.463 196.657 380.112 196.726 379.729 196.726C379.543 196.726 379.382 196.716 379.246 196.694C379.11 196.676 378.993 196.657 378.896 196.635V195.335C378.972 195.353 379.067 195.369 379.181 195.384C379.296 195.398 379.416 195.405 379.541 195.405C379.77 195.405 379.967 195.357 380.132 195.26C380.297 195.163 380.434 195.033 380.545 194.868C380.656 194.707 380.744 194.53 380.809 194.336L380.905 194.041L378.521 188.079Z" fill="white"/>
</g>
<defs>
<filter id="filter0_d_1_705" x="0" y="0" width="508" height="364.926" filterUnits="userSpaceOnUse" color-interpolation-filters="sRGB">
<feFlood flood-opacity="0" result="BackgroundImageFix"/>
<feColorMatrix in="SourceAlpha" type="matrix" values="0 0 0 0 0 0 0 0 0 0 0 0 0 0 0 0 0 0 127 0" result="hardAlpha"/>
<feOffset dy="4"/>
<feGaussianBlur stdDeviation="15"/>
<feComposite in2="hardAlpha" operator="out"/>
<feColorMatrix type="matrix" values="0 0 0 0 0 0 0 0 0 0 0 0 0 0 0 0 0 0 0.37 0"/>
<feBlend mode="normal" in2="BackgroundImageFix" result="effect1_dropShadow_1_705"/>
<feBlend mode="normal" in="SourceGraphic" in2="effect1_dropShadow_1_705" result="shape"/>
</filter>
</defs>
</svg>
